<?xml version="1.0" standalone="no"?>
<!DOCTYPE svg PUBLIC "-//W3C//DTD SVG 20010904//EN"
 "http://www.w3.org/TR/2001/REC-SVG-20010904/DTD/svg10.dtd">
<svg version="1.0" xmlns="http://www.w3.org/2000/svg"
 width="642.000000pt" height="94.000000pt" viewBox="0 0 642.000000 94.000000"
 preserveAspectRatio="xMidYMid meet">

<g transform="translate(0.000000,94.000000) scale(0.100000,-0.100000)"
fill="#000000" stroke="none">
<path d="M0 470 l0 -470 1590 0 1590 0 0 470 0 470 -1590 0 -1590 0 0 -470z
m678 123 c3 -164 -3 -180 -90 -224 l-61 -31 -60 28 c-89 43 -97 61 -97 220 0
72 3 134 7 138 4 3 72 5 152 4 l146 -3 3 -132z m241 118 c20 -5 25 -14 27 -49
2 -37 0 -42 -14 -36 -76 32 -108 0 -48 -50 75 -64 92 -115 56 -173 -25 -41
-52 -55 -110 -55 -79 0 -90 7 -90 58 0 49 1 50 35 28 33 -22 69 -15 73 15 3
17 -9 35 -47 70 -45 42 -51 52 -51 88 0 84 75 131 169 104z m1231 -31 c0 -29
-4 -40 -15 -40 -10 0 -15 -11 -15 -35 0 -35 0 -35 -45 -35 -45 0 -45 0 -45 35
0 28 -4 35 -20 35 -17 0 -20 7 -20 40 l0 40 80 0 80 0 0 -40z m200 0 c0 -29
-4 -40 -15 -40 -10 0 -15 -11 -15 -35 l0 -35 -50 0 -50 0 0 35 c0 24 -5 35
-15 35 -11 0 -15 11 -15 40 l0 40 80 0 80 0 0 -40z m146 23 c6 -10 25 -44 43
-75 l32 -58 -85 0 -86 0 0 35 c0 28 -4 35 -20 35 -16 0 -20 7 -20 33 0 19 3
37 7 40 3 4 32 7 62 7 43 0 59 -4 67 -17z m224 -23 c0 -29 -4 -40 -15 -40 -10
0 -15 -11 -15 -35 0 -35 0 -35 -45 -35 -45 0 -45 0 -45 35 0 28 -4 35 -20 35
-17 0 -20 7 -20 40 l0 40 80 0 80 0 0 -40z m178 -2 c3 -33 0 -38 -17 -38 -17
0 -21 -6 -21 -35 0 -35 0 -35 -45 -35 -44 0 -45 0 -45 34 0 25 -5 35 -20 39
-14 4 -20 14 -20 34 0 16 3 33 7 37 4 4 41 5 83 4 l75 -3 3 -37z m-1776 -113
c-3 -164 -6 -160 77 -130 22 8 41 12 41 10 0 -2 -9 -24 -20 -49 l-19 -46 -93
0 -93 0 0 180 0 180 55 0 55 0 -3 -145z m273 -35 l0 -180 -55 0 -55 0 0 180 0
180 55 0 55 0 0 -180z m180 0 l0 -180 -55 0 -55 0 0 180 0 180 55 0 55 0 0
-180z m341 160 c-3 -11 -8 -28 -11 -38 -4 -14 -13 -17 -46 -14 l-41 4 4 -146
3 -146 -62 0 -62 0 10 32 c9 34 13 251 4 260 -3 3 -26 2 -53 -3 -26 -4 -48 -6
-49 -5 -1 1 3 19 9 39 l11 37 144 0 c140 0 144 -1 139 -20z m184 -160 c0 -5
-13 -10 -30 -10 -16 0 -30 5 -30 10 0 6 14 10 30 10 17 0 30 -4 30 -10z m200
0 c0 -5 -13 -10 -30 -10 -16 0 -30 5 -30 10 0 6 14 10 30 10 17 0 30 -4 30
-10z m170 0 c0 -5 -13 -10 -30 -10 -16 0 -30 5 -30 10 0 6 14 10 30 10 17 0
30 -4 30 -10z m205 0 c-3 -5 -17 -10 -31 -10 -13 0 -24 5 -24 10 0 6 14 10 31
10 17 0 28 -4 24 -10z m165 0 c0 -5 -11 -10 -24 -10 -14 0 -28 5 -31 10 -4 6
7 10 24 10 17 0 31 -4 31 -10z m-720 -49 c0 -49 76 -55 98 -8 12 25 18 28 55
25 41 -3 42 -4 39 -38 -6 -69 -58 -110 -143 -110 -82 0 -139 49 -139 120 0 29
2 30 45 30 37 0 45 -3 45 -19z m368 -18 c2 -21 9 -33 18 -33 9 0 14 -11 14
-35 l0 -35 -70 0 c-38 0 -73 0 -77 0 -5 0 -9 15 -11 35 -3 30 0 35 17 35 17 0
21 6 21 36 l0 35 43 -3 c39 -3 42 -5 45 -35z m200 -35 l3 -68 -43 0 c-42 0
-44 2 -80 65 -21 35 -38 66 -38 70 0 3 35 5 78 3 l77 -3 3 -67z m172 37 c0
-29 4 -35 21 -35 17 0 20 -5 17 -37 -2 -21 -6 -37 -10 -35 -5 1 -42 2 -83 2
l-75 0 0 35 c0 28 4 35 20 35 16 0 20 7 20 35 0 35 0 35 45 35 45 0 45 0 45
-35z m-582 -172 c-350 -2 -926 -2 -1280 0 -354 1 -67 2 637 2 704 0 993 -1
643 -2z m-1775 -40 c-7 -2 -13 -16 -13 -29 0 -34 -17 -30 -22 6 -4 27 -2 30
21 29 14 0 20 -3 14 -6z m77 -23 c0 -16 -4 -30 -10 -30 -5 0 -10 14 -10 30 0
17 5 30 10 30 6 0 10 -13 10 -30z m30 -1 c0 -17 -4 -28 -10 -24 -5 3 -10 17
-10 31 0 13 5 24 10 24 6 0 10 -14 10 -31z m86 16 c9 -8 11 -15 5 -15 -6 0
-11 -7 -11 -15 0 -8 -4 -15 -10 -15 -5 0 -10 14 -10 30 0 34 5 37 26 15z m187
8 c-10 -4 -10 -10 -2 -25 12 -23 2 -39 -11 -18 -7 11 -10 12 -10 2 0 -7 -4
-10 -10 -7 -5 3 -10 17 -10 29 0 19 5 23 28 23 15 0 21 -2 15 -4z m111 0 c-7
-2 -9 -14 -7 -26 l6 -22 -22 22 c-27 28 -27 31 7 30 15 0 22 -2 16 -4z m77
-20 l1 -28 8 30 c6 25 8 27 15 12 9 -21 -11 -48 -31 -40 -16 6 -20 53 -4 53 6
0 11 -12 11 -27z m133 11 c10 -27 7 -34 -16 -31 -12 2 -25 13 -29 25 -7 19 -5
22 15 22 13 0 27 -7 30 -16z m96 -14 c0 -16 -4 -30 -10 -30 -5 0 -10 14 -10
30 0 17 5 30 10 30 6 0 10 -13 10 -30z m103 18 c5 -18 -3 -48 -14 -48 -5 0 -9
14 -9 30 0 30 15 41 23 18z m122 2 c4 -6 4 -19 0 -28 -7 -14 -9 -13 -15 8 l-8
25 -1 -27 c-1 -38 -21 -36 -21 2 0 23 5 30 19 30 11 0 23 -5 26 -10z m93 3
c-10 -3 -18 -14 -18 -26 0 -18 2 -19 10 -7 5 8 12 11 17 7 4 -5 1 -12 -7 -17
-19 -12 -45 12 -37 34 4 9 17 15 29 15 17 -1 18 -2 6 -6z m95 -7 c3 -8 -1 -22
-8 -33 -13 -17 -14 -16 -15 15 0 33 13 43 23 18z m167 -12 c0 -17 4 -23 13
-18 9 5 9 4 0 -6 -6 -7 -16 -9 -22 -6 -14 9 -15 56 -1 56 6 0 10 -12 10 -26z
m126 -1 c2 -29 -6 -29 -28 1 -17 23 -17 24 5 22 15 -1 23 -8 23 -23z m78 0 c0
-16 -4 -28 -9 -28 -5 0 -9 12 -9 28 -1 15 3 27 9 27 6 0 10 -12 9 -27z m86 12
c9 -11 10 -19 3 -26 -6 -6 -13 -1 -21 16 -13 28 -2 34 18 10z m103 1 c3 -8 -1
-22 -8 -33 -13 -17 -14 -16 -15 15 0 33 13 43 23 18z m119 -11 c3 -14 1 -28
-3 -31 -5 -3 -9 0 -9 7 0 8 -4 8 -15 -1 -13 -11 -15 -8 -15 19 0 40 35 45 42
6z m90 18 c-10 -4 -10 -8 -1 -19 9 -11 9 -18 1 -26 -9 -9 -12 -8 -12 5 0 9 -4
17 -10 17 -21 0 -9 26 13 27 12 0 16 -1 9 -4z m78 -24 c0 -17 -4 -28 -10 -24
-5 3 -10 17 -10 31 0 13 5 24 10 24 6 0 10 -14 10 -31z m103 24 c-7 -2 -13
-16 -13 -29 0 -34 -17 -30 -22 6 -4 27 -2 30 21 29 14 0 20 -3 14 -6z m89 -25
c-4 -28 -22 -40 -22 -14 0 8 -3 21 -6 30 -4 10 0 14 13 13 15 -1 18 -7 15 -29z
m-2032 -12 c0 -3 -4 -8 -10 -11 -5 -3 -10 -1 -10 4 0 6 5 11 10 11 6 0 10 -2
10 -4z m710 0 c0 -3 -4 -8 -10 -11 -5 -3 -10 -1 -10 4 0 6 5 11 10 11 6 0 10
-2 10 -4z m-720 -38 c0 -5 -18 -8 -40 -8 -22 0 -40 3 -40 8 0 4 18 7 40 7 22
0 40 -3 40 -7z m115 2 c3 -5 1 -10 -4 -10 -6 0 -11 5 -11 10 0 6 2 10 4 10 3
0 8 -4 11 -10z m175 -6 c0 -2 -21 -3 -47 -3 -46 2 -47 2 -13 8 33 7 60 4 60
-5z m90 1 c0 -2 -14 -3 -31 -3 -17 1 -25 4 -18 8 10 7 49 2 49 -5z m220 5 c0
-4 -44 -7 -97 -7 l-98 0 85 6 c47 3 91 6 98 7 6 0 12 -3 12 -6z m185 0 c4 -6
-6 -10 -22 -9 -25 0 -26 1 -8 9 11 5 21 9 22 9 1 1 5 -3 8 -9z m115 -4 c8 -2
-11 -4 -42 -5 -32 0 -58 2 -58 7 0 7 64 6 100 -2z m130 -2 c0 -2 -11 -4 -25
-4 -14 0 -25 4 -25 9 0 4 11 6 25 3 14 -2 25 -6 25 -8z m200 0 c0 -2 -17 -4
-37 -3 -29 0 -33 2 -18 8 18 7 55 4 55 -5z m215 2 c17 -1 -24 -3 -90 -4 -66 0
-112 2 -103 6 16 7 125 6 193 -2z m145 2 c0 -5 -26 -7 -57 -7 -49 1 -52 3 -23
8 47 8 80 8 80 -1z m460 -4 c0 -2 -53 -3 -117 -2 l-118 2 100 5 c94 6 135 4
135 -5z m150 6 c0 -6 -30 -9 -72 -8 l-73 2 70 6 c39 4 71 7 73 8 1 1 2 -2 2
-8z m-2397 -7 c-29 -2 -77 -2 -105 0 -29 2 -6 3 52 3 58 0 81 -1 53 -3z m270
0 c-13 -2 -33 -2 -45 0 -13 2 -3 4 22 4 25 0 35 -2 23 -4z m114 1 c-3 -3 -12
-4 -19 -1 -8 3 -5 6 6 6 11 1 17 -2 13 -5z m486 -1 c-13 -2 -33 -2 -45 0 -13
2 -3 4 22 4 25 0 35 -2 23 -4z m54 1 c-3 -3 -12 -4 -19 -1 -8 3 -5 6 6 6 11 1
17 -2 13 -5z m220 0 c-3 -3 -12 -4 -19 -1 -8 3 -5 6 6 6 11 1 17 -2 13 -5z
m171 -1 c-16 -2 -40 -2 -55 0 -16 2 -3 4 27 4 30 0 43 -2 28 -4z m525 0 c-7
-2 -21 -2 -30 0 -10 3 -4 5 12 5 17 0 24 -2 18 -5z m60 0 c-7 -2 -19 -2 -25 0
-7 3 -2 5 12 5 14 0 19 -2 13 -5z m44 1 c-3 -3 -12 -4 -19 -1 -8 3 -5 6 6 6
11 1 17 -2 13 -5z m56 -1 c-7 -2 -21 -2 -30 0 -10 3 -4 5 12 5 17 0 24 -2 18
-5z"/>
<path d="M431 698 c-1 -11 -9 -18 -21 -18 -11 0 -20 -4 -20 -9 0 -5 9 -7 20
-4 14 4 20 0 20 -12 0 -12 -6 -16 -20 -12 -11 3 -20 1 -20 -4 0 -5 9 -9 21 -9
16 0 19 -4 14 -20 -5 -14 -2 -20 9 -20 12 0 16 -11 16 -48 0 -42 3 -48 21 -48
20 0 21 4 16 68 l-5 67 38 -1 39 0 3 -74 c3 -64 1 -74 -14 -74 -13 0 -16 10
-16 48 1 71 -1 84 -12 77 -5 -3 -10 -33 -10 -66 l0 -59 -35 0 c-19 0 -35 5
-35 11 0 8 -4 8 -15 -1 -8 -6 -19 -9 -25 -5 -6 4 -10 -4 -10 -20 0 -18 6 -29
19 -32 11 -3 22 -12 24 -22 4 -14 5 -14 6 2 2 28 31 20 31 -9 0 -14 4 -23 9
-20 5 3 7 15 4 26 -4 15 0 20 15 20 17 0 22 -8 25 -37 l4 -38 1 38 c2 43 32
55 32 12 0 -14 4 -25 9 -25 4 0 6 11 3 25 -3 20 0 25 16 25 11 0 23 -8 25 -17
4 -17 5 -17 6 0 0 9 7 17 15 17 8 0 17 4 20 9 4 5 -3 7 -14 4 -14 -4 -20 0
-20 11 0 9 8 16 20 16 17 0 20 7 20 44 0 26 -6 48 -15 56 -13 11 -15 6 -15
-39 0 -39 -4 -51 -15 -51 -11 0 -15 13 -15 53 0 37 -3 48 -10 37 -8 -12 -10
-11 -10 7 0 12 -3 28 -6 37 -4 12 0 16 15 16 12 0 21 -6 21 -15 0 -8 4 -15 10
-15 5 0 7 7 4 15 -4 10 0 15 15 15 12 0 21 4 21 8 0 5 -20 7 -45 5 -35 -3 -45
0 -45 12 0 12 10 15 45 12 25 -2 45 0 45 5 0 4 -9 8 -19 8 -11 0 -22 8 -24 18
-4 16 -5 16 -6 0 -1 -11 -9 -18 -22 -18 -15 0 -19 5 -15 15 4 12 -5 15 -49 15
-44 0 -53 -3 -49 -15 4 -10 0 -15 -14 -15 -11 0 -23 8 -25 18 -4 16 -5 16 -6
0z m125 -13 c4 -8 3 -22 0 -31 -5 -13 -9 -14 -21 -4 -10 8 -15 9 -15 2 0 -6
-7 -9 -15 -6 -8 4 -15 17 -15 30 0 20 5 24 30 24 18 0 33 -6 36 -15z m-86 -30
c0 -8 -7 -15 -15 -15 -8 0 -15 7 -15 15 0 8 7 15 15 15 8 0 15 -7 15 -15z m0
-40 c0 -8 -7 -15 -15 -15 -8 0 -15 7 -15 15 0 8 7 15 15 15 8 0 15 -7 15 -15z
m-42 -157 c-6 -18 -28 -21 -28 -4 0 9 7 16 16 16 9 0 14 -5 12 -12z m42 -3 c0
-8 -7 -15 -15 -15 -8 0 -15 7 -15 15 0 8 7 15 15 15 8 0 15 -7 15 -15z m50 6
c0 -14 -18 -23 -30 -16 -6 4 -8 11 -5 16 8 12 35 12 35 0z m40 -6 c0 -8 -7
-15 -15 -15 -8 0 -15 7 -15 15 0 8 7 15 15 15 8 0 15 -7 15 -15z m50 -1 c0 -9
-7 -14 -17 -12 -25 5 -28 28 -4 28 12 0 21 -6 21 -16z"/>
<path d="M391 594 c0 -11 3 -14 6 -6 3 7 2 16 -1 19 -3 4 -6 -2 -5 -13z"/>
<path d="M410 568 c1 -7 7 -24 15 -38 l14 -25 1 23 c0 13 -7 30 -15 38 -11 12
-15 12 -15 2z"/>
<path d="M390 534 c0 -12 7 -27 15 -34 19 -16 19 -3 0 30 -13 24 -14 24 -15 4z"/>
<path d="M5670 517 c0 -202 2 -207 95 -207 35 0 71 3 80 6 39 15 65 129 46
202 -16 57 -51 81 -95 63 -68 -28 -66 -29 -66 38 l0 61 -30 0 -30 0 0 -163z
m148 1 c16 -16 15 -120 -1 -142 -9 -12 -23 -17 -47 -14 l-35 3 -3 67 c-3 64
-2 67 25 82 34 19 46 19 61 4z"/>
<path d="M3493 636 c-74 -62 -70 -263 5 -312 33 -22 110 -24 146 -4 32 17 56
58 56 95 0 21 -5 25 -30 25 -23 0 -30 -4 -30 -20 0 -28 -35 -60 -65 -60 -49 0
-65 31 -65 123 0 95 13 117 67 117 30 0 63 -26 63 -48 0 -7 14 -12 30 -12 26
0 30 4 30 26 0 16 -13 39 -34 60 -30 30 -40 34 -89 34 -44 0 -61 -5 -84 -24z"/>
<path d="M4950 656 c0 -4 29 -114 81 -308 8 -33 14 -38 39 -38 28 0 30 4 55
88 40 136 37 135 73 18 31 -102 33 -106 60 -106 28 0 29 2 72 163 24 89 45
168 48 175 3 8 -7 12 -31 12 l-35 0 -28 -112 c-30 -124 -28 -125 -69 15 -40
137 -67 131 -111 -26 -16 -58 -30 -93 -34 -85 -4 7 -18 57 -31 111 l-23 97
-33 0 c-18 0 -33 -2 -33 -4z"/>
<path d="M3775 568 c-50 -44 -57 -182 -11 -235 17 -19 34 -27 72 -30 95 -8
138 44 131 157 -6 100 -34 130 -122 130 -31 0 -51 -7 -70 -22z m109 -41 c23
-17 33 -97 16 -137 -10 -25 -18 -30 -45 -30 -18 0 -37 6 -43 13 -17 20 -25 65
-18 102 11 59 50 81 90 52z"/>
<path d="M4000 476 c0 -98 3 -117 20 -138 27 -35 51 -39 100 -17 51 23 50 23
50 4 0 -9 9 -15 25 -15 l25 0 0 140 0 140 -30 0 -30 0 0 -98 0 -98 -35 -17
c-55 -26 -65 -8 -65 114 l0 99 -30 0 -30 0 0 -114z"/>
<path d="M4280 450 l0 -140 30 0 30 0 0 99 c0 108 -4 100 71 124 9 3 19 17 21
31 6 31 -16 35 -63 11 -26 -14 -30 -14 -35 0 -3 8 -17 15 -30 15 l-24 0 0
-140z"/>
<path d="M4498 575 c-18 -10 -29 -26 -34 -50 -9 -49 15 -81 68 -95 64 -16 68
-18 74 -35 16 -41 -64 -64 -88 -25 -17 26 -58 27 -58 1 0 -10 9 -29 19 -42 16
-20 28 -24 81 -24 56 0 64 3 87 29 20 24 24 37 19 65 -7 47 -23 60 -87 75 -48
10 -54 14 -54 36 0 21 5 26 32 28 24 2 35 -2 45 -17 19 -30 58 -28 58 3 0 55
-97 86 -162 51z"/>
<path d="M4749 575 c-71 -39 -63 -225 11 -262 60 -30 140 -6 159 48 14 41 15
39 -17 39 -16 0 -32 -8 -40 -20 -17 -27 -77 -28 -92 -1 -23 45 -15 51 69 51
46 0 83 5 86 11 13 21 -6 101 -30 125 -19 19 -35 24 -72 24 -26 -1 -60 -7 -74
-15z m109 -47 c7 -7 12 -21 12 -32 0 -20 -21 -24 -102 -17 -13 1 -9 24 9 43
18 20 63 24 81 6z"/>
<path d="M5453 580 c-33 -13 -53 -62 -53 -128 0 -77 15 -119 51 -137 54 -28
147 -11 163 30 21 56 -14 74 -57 31 -38 -38 -97 -18 -97 33 0 26 0 26 72 23
59 -3 74 -1 84 13 24 33 -2 115 -43 134 -28 13 -89 13 -120 1z m109 -65 c6
-14 9 -28 6 -31 -3 -3 -29 -7 -57 -8 -44 -3 -51 -1 -51 14 0 50 81 70 102 25z"/>
</g>
</svg>
